<svg width="240" height="300" viewBox="0 0 240 300" fill="none" xmlns="http://www.w3.org/2000/svg">
  <g opacity="0.94">
    <path d="M120 26C129.941 26 138 34.0589 138 44V112L190.215 59.7846C197.244 52.7556 208.643 52.7556 215.672 59.7846C222.701 66.8137 222.701 78.2127 215.672 85.2418L155.914 145L215.672 204.758C222.701 211.787 222.701 223.186 215.672 230.215C208.643 237.244 197.244 237.244 190.215 230.215L138 178V256C138 265.941 129.941 274 120 274C110.059 274 102 265.941 102 256V178L49.7846 230.215C42.7556 237.244 31.3566 237.244 24.3275 230.215C17.2985 223.186 17.2985 211.787 24.3275 204.758L84.0863 145L24.3275 85.2418C17.2985 78.2127 17.2985 66.8137 24.3275 59.7846C31.3566 52.7556 42.7556 52.7556 49.7846 59.7846L102 112V44C102 34.0589 110.059 26 120 26Z" fill="#A77749" fill-opacity="0.2"/>
    <path d="M120 42V256" stroke="#7F4F28" stroke-width="15" stroke-linecap="round"/>
    <path d="M39 64L201 226" stroke="#7F4F28" stroke-width="13" stroke-linecap="round"/>
    <path d="M201 64L39 226" stroke="#7F4F28" stroke-width="13" stroke-linecap="round" opacity="0.82"/>
    <circle cx="120" cy="145" r="82" stroke="#C79C6D" stroke-width="11" opacity="0.52"/>
    <path d="M120 14V44" stroke="#D7B287" stroke-width="9" stroke-linecap="round" opacity="0.72"/>
  </g>
</svg>